# cube.obj
#
 
o cube
 
v  0.0  0.0  0.0
v  0.0  0.0  1.0
v  0.0  1.0  0.0
v  0.0  1.0  1.0
v  1.0  0.0  0.0
v  1.0  0.0  1.0
v  1.0  1.0  0.0
v  1.0  1.0  1.0
 
vt 0 0
vt 1 0
vt 0 1
vt 1 1
vt 0.5 0

vn  0.0  0.0  1.0
vn  0.0  0.0 -1.0
vn  0.0  1.0  0.0
vn  0.0 -1.0  0.0
vn  1.0  0.0  0.0
vn -1.0  0.0  0.0

# front
s off
f  1/4/2  7/1/2  5/3/2
f  1/4/2  3/2/2  7/1/2 

# right
f  1/3/6  4/2/6  3/1/6 
f  1/3/6  2/4/6  4/2/6 

s on
# top
f  3/5/3  8/5/3  7/5/3 
f  3/5/3  4/5/3  8/5/3 

# left
f  5/4/5  7/2/5  8/1/5 
f  5/4/5  8/1/5  6/3/5 

s 0
# bottom
f  1/5/4  5/5/4  6/5/4
f  1/5/4  6/5/4  2/5/4 

s 1
# back
f  2/3/1  6/4/1  8/2/1 
f  2/3/1  8/2/1  4/1/1 